<svg height="234" width="234" xmlns="http://www.w3.org/2000/svg"><path d="m0 0h234v234h-234z" fill="#fff"/><path d="m6 6h6v6h-6zm6 0h6v6h-6zm6 0h6v6h-6zm6 0h6v6h-6zm6 0h6v6h-6zm6 0h6v6h-6zm6 0h6v6h-6zm24 0h6v6h-6zm12 0h6v6h-6zm6 0h6v6h-6zm6 0h6v6h-6zm6 0h6v6h-6zm18 0h6v6h-6zm6 0h6v6h-6zm6 0h6v6h-6zm18 0h6v6h-6zm18 0h6v6h-6zm24 0h6v6h-6zm6 0h6v6h-6zm6 0h6v6h-6zm6 0h6v6h-6zm6 0h6v6h-6zm6 0h6v6h-6zm6 0h6v6h-6zm-216 6h6v6h-6zm36 0h6v6h-6zm12 0h6v6h-6zm12 0h6v6h-6zm18 0h6v6h-6zm6 0h6v6h-6zm6 0h6v6h-6zm6 0h6v6h-6zm24 0h6v6h-6zm6 0h6v6h-6zm36 0h6v6h-6zm6 0h6v6h-6zm12 0h6v6h-6zm36 0h6v6h-6zm-216 6h6v6h-6zm12 0h6v6h-6zm6 0h6v6h-6zm6 0h6v6h-6zm12 0h6v6h-6zm36 0h6v6h-6zm6 0h6v6h-6zm12 0h6v6h-6zm36 0h6v6h-6zm18 0h6v6h-6zm12 0h6v6h-6zm12 0h6v6h-6zm12 0h6v6h-6zm12 0h6v6h-6zm6 0h6v6h-6zm6 0h6v6h-6zm12 0h6v6h-6zm-216 6h6v6h-6zm12 0h6v6h-6zm6 0h6v6h-6zm6 0h6v6h-6zm12 0h6v6h-6zm12 0h6v6h-6zm6 0h6v6h-6zm6 0h6v6h-6zm12 0h6v6h-6zm12 0h6v6h-6zm6 0h6v6h-6zm12 0h6v6h-6zm12 0h6v6h-6zm12 0h6v6h-6zm6 0h6v6h-6zm6 0h6v6h-6zm6 0h6v6h-6zm6 0h6v6h-6zm30 0h6v6h-6zm12 0h6v6h-6zm6 0h6v6h-6zm6 0h6v6h-6zm12 0h6v6h-6zm-216 6h6v6h-6zm12 0h6v6h-6zm6 0h6v6h-6zm6 0h6v6h-6zm12 0h6v6h-6zm18 0h6v6h-6zm36 0h6v6h-6zm6 0h6v6h-6zm18 0h6v6h-6zm6 0h6v6h-6zm36 0h6v6h-6zm24 0h6v6h-6zm12 0h6v6h-6zm6 0h6v6h-6zm6 0h6v6h-6zm12 0h6v6h-6zm-216 6h6v6h-6zm36 0h6v6h-6zm12 0h6v6h-6zm6 0h6v6h-6zm12 0h6v6h-6zm6 0h6v6h-6zm30 0h6v6h-6zm24 0h6v6h-6zm6 0h6v6h-6zm18 0h6v6h-6zm6 0h6v6h-6zm6 0h6v6h-6zm18 0h6v6h-6zm36 0h6v6h-6zm-216 6h6v6h-6zm6 0h6v6h-6zm6 0h6v6h-6zm6 0h6v6h-6zm6 0h6v6h-6zm6 0h6v6h-6zm6 0h6v6h-6zm12 0h6v6h-6zm12 0h6v6h-6zm12 0h6v6h-6zm12 0h6v6h-6zm12 0h6v6h-6zm12 0h6v6h-6zm12 0h6v6h-6zm12 0h6v6h-6zm12 0h6v6h-6zm12 0h6v6h-6zm12 0h6v6h-6zm12 0h6v6h-6zm6 0h6v6h-6zm6 0h6v6h-6zm6 0h6v6h-6zm6 0h6v6h-6zm6 0h6v6h-6zm6 0h6v6h-6zm-162 6h6v6h-6zm6 0h6v6h-6zm6 0h6v6h-6zm18 0h6v6h-6zm12 0h6v6h-6zm18 0h6v6h-6zm6 0h6v6h-6zm6 0h6v6h-6zm6 0h6v6h-6zm6 0h6v6h-6zm6 0h6v6h-6zm12 0h6v6h-6zm6 0h6v6h-6zm6 0h6v6h-6zm-168 6h6v6h-6zm6 0h6v6h-6zm6 0h6v6h-6zm6 0h6v6h-6zm6 0h6v6h-6zm12 0h6v6h-6zm6 0h6v6h-6zm6 0h6v6h-6zm6 0h6v6h-6zm12 0h6v6h-6zm30 0h6v6h-6zm6 0h6v6h-6zm6 0h6v6h-6zm12 0h6v6h-6zm6 0h6v6h-6zm6 0h6v6h-6zm12 0h6v6h-6zm6 0h6v6h-6zm12 0h6v6h-6zm12 0h6v6h-6zm12 0h6v6h-6zm12 0h6v6h-6zm12 0h6v6h-6zm-198 6h6v6h-6zm18 0h6v6h-6zm24 0h6v6h-6zm6 0h6v6h-6zm12 0h6v6h-6zm6 0h6v6h-6zm6 0h6v6h-6zm6 0h6v6h-6zm12 0h6v6h-6zm12 0h6v6h-6zm6 0h6v6h-6zm6 0h6v6h-6zm6 0h6v6h-6zm6 0h6v6h-6zm18 0h6v6h-6zm12 0h6v6h-6zm18 0h6v6h-6zm12 0h6v6h-6zm6 0h6v6h-6zm6 0h6v6h-6zm-180 6h6v6h-6zm6 0h6v6h-6zm6 0h6v6h-6zm12 0h6v6h-6zm6 0h6v6h-6zm18 0h6v6h-6zm6 0h6v6h-6zm6 0h6v6h-6zm6 0h6v6h-6zm6 0h6v6h-6zm18 0h6v6h-6zm12 0h6v6h-6zm12 0h6v6h-6zm18 0h6v6h-6zm6 0h6v6h-6zm6 0h6v6h-6zm12 0h6v6h-6zm6 0h6v6h-6zm6 0h6v6h-6zm6 0h6v6h-6zm12 0h6v6h-6zm-210 6h6v6h-6zm6 0h6v6h-6zm18 0h6v6h-6zm18 0h6v6h-6zm12 0h6v6h-6zm12 0h6v6h-6zm6 0h6v6h-6zm12 0h6v6h-6zm24 0h6v6h-6zm6 0h6v6h-6zm6 0h6v6h-6zm6 0h6v6h-6zm24 0h6v6h-6zm12 0h6v6h-6zm12 0h6v6h-6zm6 0h6v6h-6zm12 0h6v6h-6zm12 0h6v6h-6zm-204 6h6v6h-6zm24 0h6v6h-6zm6 0h6v6h-6zm18 0h6v6h-6zm18 0h6v6h-6zm12 0h6v6h-6zm6 0h6v6h-6zm12 0h6v6h-6zm12 0h6v6h-6zm12 0h6v6h-6zm6 0h6v6h-6zm18 0h6v6h-6zm6 0h6v6h-6zm18 0h6v6h-6zm6 0h6v6h-6zm12 0h6v6h-6zm6 0h6v6h-6zm6 0h6v6h-6zm12 0h6v6h-6zm-216 6h6v6h-6zm6 0h6v6h-6zm12 0h6v6h-6zm6 0h6v6h-6zm6 0h6v6h-6zm18 0h6v6h-6zm12 0h6v6h-6zm30 0h6v6h-6zm6 0h6v6h-6zm18 0h6v6h-6zm24 0h6v6h-6zm6 0h6v6h-6zm42 0h6v6h-6zm18 0h6v6h-6zm6 0h6v6h-6zm-210 6h6v6h-6zm6 0h6v6h-6zm6 0h6v6h-6zm18 0h6v6h-6zm6 0h6v6h-6zm12 0h6v6h-6zm12 0h6v6h-6zm6 0h6v6h-6zm6 0h6v6h-6zm60 0h6v6h-6zm18 0h6v6h-6zm6 0h6v6h-6zm6 0h6v6h-6zm6 0h6v6h-6zm6 0h6v6h-6zm6 0h6v6h-6zm6 0h6v6h-6zm6 0h6v6h-6zm12 0h6v6h-6zm6 0h6v6h-6zm6 0h6v6h-6zm-216 6h6v6h-6zm18 0h6v6h-6zm6 0h6v6h-6zm6 0h6v6h-6zm18 0h6v6h-6zm6 0h6v6h-6zm12 0h6v6h-6zm18 0h6v6h-6zm12 0h6v6h-6zm24 0h6v6h-6zm6 0h6v6h-6zm12 0h6v6h-6zm24 0h6v6h-6zm6 0h6v6h-6zm6 0h6v6h-6zm6 0h6v6h-6zm6 0h6v6h-6zm6 0h6v6h-6zm6 0h6v6h-6zm18 0h6v6h-6zm-204 6h6v6h-6zm6 0h6v6h-6zm12 0h6v6h-6zm6 0h6v6h-6zm18 0h6v6h-6zm12 0h6v6h-6zm36 0h6v6h-6zm18 0h6v6h-6zm12 0h6v6h-6zm24 0h6v6h-6zm6 0h6v6h-6zm18 0h6v6h-6zm12 0h6v6h-6zm6 0h6v6h-6zm6 0h6v6h-6zm12 0h6v6h-6zm-216 6h6v6h-6zm6 0h6v6h-6zm48 0h6v6h-6zm6 0h6v6h-6zm12 0h6v6h-6zm6 0h6v6h-6zm6 0h6v6h-6zm6 0h6v6h-6zm24 0h6v6h-6zm18 0h6v6h-6zm6 0h6v6h-6zm6 0h6v6h-6zm12 0h6v6h-6zm12 0h6v6h-6zm18 0h6v6h-6zm18 0h6v6h-6zm6 0h6v6h-6zm-210 6h6v6h-6zm24 0h6v6h-6zm6 0h6v6h-6zm6 0h6v6h-6zm12 0h6v6h-6zm6 0h6v6h-6zm6 0h6v6h-6zm18 0h6v6h-6zm6 0h6v6h-6zm6 0h6v6h-6zm6 0h6v6h-6zm6 0h6v6h-6zm6 0h6v6h-6zm12 0h6v6h-6zm6 0h6v6h-6zm18 0h6v6h-6zm18 0h6v6h-6zm12 0h6v6h-6zm12 0h6v6h-6zm6 0h6v6h-6zm12 0h6v6h-6zm6 0h6v6h-6zm6 0h6v6h-6zm-198 6h6v6h-6zm6 0h6v6h-6zm24 0h6v6h-6zm6 0h6v6h-6zm18 0h6v6h-6zm6 0h6v6h-6zm18 0h6v6h-6zm18 0h6v6h-6zm12 0h6v6h-6zm18 0h6v6h-6zm12 0h6v6h-6zm6 0h6v6h-6zm6 0h6v6h-6zm18 0h6v6h-6zm6 0h6v6h-6zm24 0h6v6h-6zm-216 6h6v6h-6zm6 0h6v6h-6zm30 0h6v6h-6zm6 0h6v6h-6zm18 0h6v6h-6zm12 0h6v6h-6zm12 0h6v6h-6zm6 0h6v6h-6zm12 0h6v6h-6zm12 0h6v6h-6zm18 0h6v6h-6zm6 0h6v6h-6zm6 0h6v6h-6zm6 0h6v6h-6zm6 0h6v6h-6zm18 0h6v6h-6zm6 0h6v6h-6zm12 0h6v6h-6zm6 0h6v6h-6zm6 0h6v6h-6zm6 0h6v6h-6zm6 0h6v6h-6zm-216 6h6v6h-6zm24 0h6v6h-6zm6 0h6v6h-6zm12 0h6v6h-6zm6 0h6v6h-6zm6 0h6v6h-6zm42 0h6v6h-6zm18 0h6v6h-6zm6 0h6v6h-6zm18 0h6v6h-6zm30 0h6v6h-6zm18 0h6v6h-6zm24 0h6v6h-6zm-198 6h6v6h-6zm18 0h6v6h-6zm6 0h6v6h-6zm12 0h6v6h-6zm6 0h6v6h-6zm6 0h6v6h-6zm6 0h6v6h-6zm6 0h6v6h-6zm18 0h6v6h-6zm18 0h6v6h-6zm12 0h6v6h-6zm12 0h6v6h-6zm12 0h6v6h-6zm12 0h6v6h-6zm6 0h6v6h-6zm6 0h6v6h-6zm12 0h6v6h-6zm6 0h6v6h-6zm6 0h6v6h-6zm6 0h6v6h-6zm12 0h6v6h-6zm6 0h6v6h-6zm-210 6h6v6h-6zm6 0h6v6h-6zm6 0h6v6h-6zm6 0h6v6h-6zm6 0h6v6h-6zm12 0h6v6h-6zm6 0h6v6h-6zm6 0h6v6h-6zm6 0h6v6h-6zm6 0h6v6h-6zm18 0h6v6h-6zm12 0h6v6h-6zm12 0h6v6h-6zm18 0h6v6h-6zm18 0h6v6h-6zm18 0h6v6h-6zm12 0h6v6h-6zm12 0h6v6h-6zm30 0h6v6h-6zm-216 6h6v6h-6zm6 0h6v6h-6zm12 0h6v6h-6zm12 0h6v6h-6zm6 0h6v6h-6zm24 0h6v6h-6zm6 0h6v6h-6zm36 0h6v6h-6zm6 0h6v6h-6zm6 0h6v6h-6zm6 0h6v6h-6zm12 0h6v6h-6zm24 0h6v6h-6zm18 0h6v6h-6zm6 0h6v6h-6zm12 0h6v6h-6zm12 0h6v6h-6zm6 0h6v6h-6zm6 0h6v6h-6zm-216 6h6v6h-6zm6 0h6v6h-6zm6 0h6v6h-6zm6 0h6v6h-6zm24 0h6v6h-6zm30 0h6v6h-6zm6 0h6v6h-6zm6 0h6v6h-6zm12 0h6v6h-6zm6 0h6v6h-6zm12 0h6v6h-6zm18 0h6v6h-6zm24 0h6v6h-6zm12 0h6v6h-6zm18 0h6v6h-6zm12 0h6v6h-6zm12 0h6v6h-6zm-210 6h6v6h-6zm12 0h6v6h-6zm12 0h6v6h-6zm6 0h6v6h-6zm6 0h6v6h-6zm18 0h6v6h-6zm24 0h6v6h-6zm6 0h6v6h-6zm6 0h6v6h-6zm6 0h6v6h-6zm24 0h6v6h-6zm42 0h6v6h-6zm12 0h6v6h-6zm18 0h6v6h-6zm6 0h6v6h-6zm6 0h6v6h-6zm6 0h6v6h-6zm6 0h6v6h-6zm-216 6h6v6h-6zm24 0h6v6h-6zm30 0h6v6h-6zm6 0h6v6h-6zm12 0h6v6h-6zm6 0h6v6h-6zm12 0h6v6h-6zm24 0h6v6h-6zm6 0h6v6h-6zm6 0h6v6h-6zm18 0h6v6h-6zm12 0h6v6h-6zm12 0h6v6h-6zm6 0h6v6h-6zm12 0h6v6h-6zm6 0h6v6h-6zm24 0h6v6h-6zm-216 6h6v6h-6zm30 0h6v6h-6zm6 0h6v6h-6zm6 0h6v6h-6zm6 0h6v6h-6zm12 0h6v6h-6zm12 0h6v6h-6zm12 0h6v6h-6zm18 0h6v6h-6zm12 0h6v6h-6zm18 0h6v6h-6zm6 0h6v6h-6zm6 0h6v6h-6zm6 0h6v6h-6zm12 0h6v6h-6zm6 0h6v6h-6zm6 0h6v6h-6zm6 0h6v6h-6zm6 0h6v6h-6zm6 0h6v6h-6zm6 0h6v6h-6zm6 0h6v6h-6zm-156 6h6v6h-6zm12 0h6v6h-6zm36 0h6v6h-6zm24 0h6v6h-6zm6 0h6v6h-6zm6 0h6v6h-6zm24 0h6v6h-6zm6 0h6v6h-6zm6 0h6v6h-6zm24 0h6v6h-6zm6 0h6v6h-6zm6 0h6v6h-6zm-204 6h6v6h-6zm6 0h6v6h-6zm6 0h6v6h-6zm6 0h6v6h-6zm6 0h6v6h-6zm6 0h6v6h-6zm6 0h6v6h-6zm12 0h6v6h-6zm6 0h6v6h-6zm6 0h6v6h-6zm6 0h6v6h-6zm6 0h6v6h-6zm18 0h6v6h-6zm12 0h6v6h-6zm6 0h6v6h-6zm12 0h6v6h-6zm6 0h6v6h-6zm18 0h6v6h-6zm24 0h6v6h-6zm12 0h6v6h-6zm12 0h6v6h-6zm18 0h6v6h-6zm6 0h6v6h-6zm-216 6h6v6h-6zm36 0h6v6h-6zm18 0h6v6h-6zm12 0h6v6h-6zm18 0h6v6h-6zm30 0h6v6h-6zm6 0h6v6h-6zm6 0h6v6h-6zm6 0h6v6h-6zm6 0h6v6h-6zm6 0h6v6h-6zm24 0h6v6h-6zm24 0h6v6h-6zm-192 6h6v6h-6zm12 0h6v6h-6zm6 0h6v6h-6zm6 0h6v6h-6zm12 0h6v6h-6zm12 0h6v6h-6zm6 0h6v6h-6zm6 0h6v6h-6zm6 0h6v6h-6zm24 0h6v6h-6zm6 0h6v6h-6zm6 0h6v6h-6zm12 0h6v6h-6zm12 0h6v6h-6zm6 0h6v6h-6zm12 0h6v6h-6zm12 0h6v6h-6zm6 0h6v6h-6zm6 0h6v6h-6zm6 0h6v6h-6zm6 0h6v6h-6zm6 0h6v6h-6zm6 0h6v6h-6zm12 0h6v6h-6zm12 0h6v6h-6zm-216 6h6v6h-6zm12 0h6v6h-6zm6 0h6v6h-6zm6 0h6v6h-6zm12 0h6v6h-6zm12 0h6v6h-6zm6 0h6v6h-6zm6 0h6v6h-6zm12 0h6v6h-6zm6 0h6v6h-6zm6 0h6v6h-6zm12 0h6v6h-6zm6 0h6v6h-6zm6 0h6v6h-6zm6 0h6v6h-6zm6 0h6v6h-6zm6 0h6v6h-6zm24 0h6v6h-6zm18 0h6v6h-6zm6 0h6v6h-6zm6 0h6v6h-6zm12 0h6v6h-6zm18 0h6v6h-6zm6 0h6v6h-6zm-216 6h6v6h-6zm12 0h6v6h-6zm6 0h6v6h-6zm6 0h6v6h-6zm12 0h6v6h-6zm12 0h6v6h-6zm6 0h6v6h-6zm6 0h6v6h-6zm18 0h6v6h-6zm6 0h6v6h-6zm6 0h6v6h-6zm6 0h6v6h-6zm12 0h6v6h-6zm12 0h6v6h-6zm12 0h6v6h-6zm18 0h6v6h-6zm6 0h6v6h-6zm12 0h6v6h-6zm30 0h6v6h-6zm6 0h6v6h-6zm6 0h6v6h-6zm6 0h6v6h-6zm-216 6h6v6h-6zm36 0h6v6h-6zm12 0h6v6h-6zm6 0h6v6h-6zm6 0h6v6h-6zm12 0h6v6h-6zm6 0h6v6h-6zm12 0h6v6h-6zm18 0h6v6h-6zm6 0h6v6h-6zm6 0h6v6h-6zm6 0h6v6h-6zm6 0h6v6h-6zm6 0h6v6h-6zm24 0h6v6h-6zm6 0h6v6h-6zm6 0h6v6h-6zm12 0h6v6h-6zm30 0h6v6h-6zm-216 6h6v6h-6zm6 0h6v6h-6zm6 0h6v6h-6zm6 0h6v6h-6zm6 0h6v6h-6zm6 0h6v6h-6zm6 0h6v6h-6zm12 0h6v6h-6zm24 0h6v6h-6zm12 0h6v6h-6zm6 0h6v6h-6zm12 0h6v6h-6zm24 0h6v6h-6zm6 0h6v6h-6zm6 0h6v6h-6zm6 0h6v6h-6zm12 0h6v6h-6zm6 0h6v6h-6zm12 0h6v6h-6zm6 0h6v6h-6zm6 0h6v6h-6zm12 0h6v6h-6zm6 0h6v6h-6zm6 0h6v6h-6zm6 0h6v6h-6z"/></svg>