<?xml version="1.0" encoding="utf-8"?>
<!-- Generator: Adobe Illustrator 24.1.2, SVG Export Plug-In . SVG Version: 6.00 Build 0)  -->
<svg version="1.1" id="Layer_1" xmlns="http://www.w3.org/2000/svg" xmlns:xlink="http://www.w3.org/1999/xlink" x="0px" y="0px"
	 viewBox="0 0 234 234" style="enable-background:new 0 0 234 234;" xml:space="preserve">
<style type="text/css">
	.st0{fill:#FFFFFF;}
</style>
<path class="st0" d="M0,0h234v234H0V0z"/>
<path d="M48,48V6H6v42H48z M12,12h30v30H12V12z"/>
<rect x="18" y="18" width="18" height="18"/>
<rect x="66" y="6" width="6" height="12"/>
<rect x="144" y="6" width="6" height="6"/>
<rect x="54" y="12" width="6" height="6"/>
<rect x="108" y="24" width="6" height="6"/>
<polygon points="6,108 6,120 12,120 12,114 18,114 18,108 "/>
<polygon points="102,30 102,18 108,18 108,12 102,12 102,6 78,6 78,12 84,12 84,18 78,18 78,30 84,30 84,24 90,24 90,18 96,18 
	96,24 90,24 90,30 96,30 96,36 108,36 108,30 "/>
<polygon points="6,54 6,60 18,60 18,66 24,66 24,60 36,60 36,54 "/>
<polygon points="18,90 18,78 24,78 24,72 12,72 12,84 6,84 6,102 12,102 12,96 24,96 24,90 "/>
<rect x="90" y="42" width="6" height="12"/>
<rect x="108" y="36" width="6" height="6"/>
<polygon points="36,126 36,120 48,120 48,114 30,114 30,120 24,120 24,126 "/>
<rect x="162" y="18" width="6" height="6"/>
<polygon points="126,30 126,24 120,24 120,36 132,36 132,30 "/>
<rect x="162" y="6" width="6" height="6"/>
<polygon points="174,24 180,24 180,12 168,12 168,18 174,18 "/>
<path d="M136.6,72c2.6,1.3,5.1,2.9,7.4,4.8V66h6v-6h-6v-6h6v6h12v-6h-6V42.5c-0.1-0.2-0.2-0.3-0.3-0.5H150v6h-6V36h-12v6h6v6h-6v-6
	h-6v6h-6v6h6v6h-6v6h6v3.4c2,0,4,0.3,6,0.8V66h6v6H136.6z"/>
<rect x="114" y="42" width="6" height="6"/>
<polygon points="78,48 84,48 84,36 72,36 72,42 78,42 "/>
<path d="M84,66v6h-6v8.4c1.1-0.9,2.2-1.8,3.5-2.6c1.4-0.9,2.8-1,4-0.6c1.4-1.3,2.9-2.4,4.5-3.3V72h5c5.7-1.4,12.7-2.2,19-1.2V60h6
	v-6h-12V42h-6v18h6v6h-6v-6H78v6H84z"/>
<polygon points="162,30 162,24 156,24 156,18 150,18 150,24 138,24 138,12 132,12 132,6 114,6 114,12 126,12 126,18 132,18 132,30 
	"/>
<rect x="54" y="72" width="6" height="6"/>
<path d="M66,96h1.7c1.1-3.1,2.5-6.1,4.3-8.8V84h-6V96z"/>
<rect x="60" y="78" width="6" height="6"/>
<path d="M65.6,126c-1.2-7.8-1.3-16.2,0.4-24v-6h-6V84h-6v18h6v12h-6v12H65.6z"/>
<polygon points="66,42 66,30 72,30 72,24 54,24 54,30 60,30 60,36 54,36 54,48 60,48 60,42 "/>
<polygon points="60,60 60,72 66,72 66,78 72,78 72,60 66,60 66,54 72,54 72,60 78,60 78,48 72,48 72,42 66,42 66,48 60,48 60,54 
	42,54 42,60 "/>
<polygon points="42,66 42,60 36,60 36,84 24,84 24,90 36,90 36,96 24,96 24,102 18,102 18,108 30,108 30,102 36,102 36,108 48,108 
	48,102 42,102 42,96 48,96 48,90 42,90 42,84 48,84 48,78 42,78 42,72 54,72 54,66 "/>
<path d="M156,70.7V66h-6v6h4.7C155.2,71.6,155.6,71.1,156,70.7z"/>
</svg>
