<?xml version="1.0" encoding="utf-8"?>
<!-- Generator: Adobe Illustrator 24.1.2, SVG Export Plug-In . SVG Version: 6.00 Build 0)  -->
<svg version="1.1" id="Layer_1" xmlns="http://www.w3.org/2000/svg" xmlns:xlink="http://www.w3.org/1999/xlink" x="0px" y="0px"
	 viewBox="0 0 234 234" style="enable-background:new 0 0 234 234;" xml:space="preserve">
<style type="text/css">
	.st0{fill:#FFFFFF;}
</style>
<path class="st0" d="M0,0h234v234H0V0z"/>
<rect x="96" y="186" width="6" height="6"/>
<path d="M48,48V6H6v42H48z M12,12h30v30H12V12z"/>
<path d="M160.3,96h7.7v6h-4.4c0.3,0.6,0.5,1.1,0.7,1.7c1.3,1.8,2.5,3.7,3.6,5.6V108h6v-6h12v6h6v-6h6v6h12v12h12v4.8
	c2-0.3,4-0.5,6-0.6V114h-6v-6h-6v-6h-6v-6h-6v-6h-6v-6h-6v6h-36v1.2C157.6,92.6,159,94.2,160.3,96z"/>
<path d="M192,126h6v0.1c2.2,0,4.4,0,6.6-0.1H204v-12h-6v-6h-6V126z"/>
<rect x="18" y="18" width="18" height="18"/>
<polygon points="216,78 210,78 210,72 216,72 216,66 222,66 222,54 216,54 216,60 210,60 210,54 204,54 204,66 198,66 198,54 
	192,54 192,72 186,72 186,78 180,78 180,84 192,84 192,78 198,78 198,72 204,72 204,78 198,78 198,84 210,84 210,96 222,96 222,108 
	228,108 228,90 222,90 222,84 216,84 "/>
<rect x="222" y="78" width="6" height="6"/>
<polygon points="12,132 18,132 18,126 6,126 6,138 12,138 "/>
<path d="M114,176.4c-2,0-4-0.2-6-0.6v4.2h6V176.4z"/>
<rect x="90" y="192" width="6" height="6"/>
<rect x="66" y="6" width="6" height="12"/>
<rect x="180" y="114" width="6" height="6"/>
<rect x="144" y="6" width="6" height="6"/>
<rect x="108" y="186" width="12" height="6"/>
<path d="M178.5,126c0.4-0.8,0.9-1.5,1.5-2.1V120h-6v-6h-3.7c1.7,3.8,2.9,7.8,3.5,12H178.5z"/>
<rect x="216" y="72" width="6" height="6"/>
<rect x="54" y="12" width="6" height="6"/>
<rect x="102" y="180" width="6" height="6"/>
<rect x="108" y="24" width="6" height="6"/>
<rect x="108" y="222" width="6" height="6"/>
<polygon points="6,108 6,120 12,120 12,114 18,114 18,108 "/>
<polygon points="102,30 102,18 108,18 108,12 102,12 102,6 78,6 78,12 84,12 84,18 78,18 78,30 84,30 84,24 90,24 90,18 96,18 
	96,24 90,24 90,30 96,30 96,36 108,36 108,30 "/>
<polygon points="6,54 6,60 18,60 18,66 24,66 24,60 36,60 36,54 "/>
<polygon points="18,90 18,78 24,78 24,72 12,72 12,84 6,84 6,102 12,102 12,96 24,96 24,90 "/>
<path d="M186,6v42h42V6H186z M222,42h-30V12h30V42z"/>
<rect x="18" y="198" width="18" height="18"/>
<path d="M6,186v42h42v-42H6z M42,222H12v-30h30V222z"/>
<rect x="48" y="156" width="6" height="6"/>
<rect x="90" y="42" width="6" height="12"/>
<rect x="180" y="54" width="6" height="6"/>
<rect x="198" y="18" width="18" height="18"/>
<rect x="108" y="36" width="6" height="6"/>
<rect x="222" y="66" width="6" height="6"/>
<polygon points="36,126 36,120 48,120 48,114 30,114 30,120 24,120 24,126 "/>
<rect x="162" y="18" width="6" height="6"/>
<polygon points="126,30 126,24 120,24 120,36 132,36 132,30 "/>
<rect x="162" y="6" width="6" height="6"/>
<polygon points="174,24 180,24 180,12 168,12 168,18 174,18 "/>
<path d="M126,69.4c2,0,4,0.3,6,0.8V66h6v6h-1.4c2.6,1.3,5.1,2.9,7.4,4.8V66h6v-6h-6v-6h6v6h12v-6h-6V42h-6v6h-6V36h-12v6h6v6h-6v-6
	h-6v6h-6v6h6v6h-6v6h6V69.4z"/>
<path d="M78,192h6v-6H72v-18h-6v-6h-6v12h6v12h-6v-12H36v6h18v12h6v6h-6v30h6v-6h12v-18h6V192z M66,198v-6h6v6H66z"/>
<rect x="114" y="42" width="6" height="6"/>
<polygon points="78,48 84,48 84,36 72,36 72,42 78,42 "/>
<polygon points="48,168 48,162 30,162 30,174 36,174 36,168 "/>
<path d="M84,66v6h-6v8.4c1.1-0.9,2.2-1.8,3.5-2.6c1.4-0.9,2.8-1,4-0.6c1.4-1.3,2.9-2.4,4.5-3.3V72h5c5.7-1.4,12.7-2.2,19-1.2V60h6
	v-6h-12V42h-6v18h6v6h-6v-6H78v6H84z"/>
<polygon points="156,36 156,42 162,42 162,54 168,54 168,60 174,60 174,54 180,54 180,42 174,42 174,48 168,48 168,42 174,42 
	174,36 168,36 168,30 162,30 162,36 "/>
<polygon points="162,30 162,24 156,24 156,18 150,18 150,24 138,24 138,12 132,12 132,6 114,6 114,12 126,12 126,18 132,18 132,30 
	"/>
<rect x="54" y="72" width="6" height="6"/>
<path d="M66,96h1.7c1.1-3.1,2.5-6.1,4.3-8.8V84h-6V96z"/>
<rect x="60" y="78" width="6" height="6"/>
<path d="M65.6,126c-1.2-7.8-1.3-16.2,0.4-24v-6h-6V84h-6v18h6v12h-6v12H65.6z"/>
<polygon points="66,42 66,30 72,30 72,24 54,24 54,30 60,30 60,36 54,36 54,48 60,48 60,42 "/>
<path d="M66,128.1v3.9h0.8C66.5,130.7,66.2,129.4,66,128.1z"/>
<path d="M83.2,162c-1.8-1.9-3.5-3.9-5.1-6H78v6H83.2z"/>
<polygon points="60,60 60,72 66,72 66,78 72,78 72,60 66,60 66,54 72,54 72,60 78,60 78,48 72,48 72,42 66,42 66,48 60,48 60,54 
	42,54 42,60 "/>
<path d="M48,138h6v6h-6v6h18v6h12v-0.1c-4-5.4-7.2-11.6-9.4-17.9H66v-6H54v-6H42v6h6V138z"/>
<path d="M30,150h6v6h12v-6h-6v-6h6v-6h-6v-6H30v6h6v6H24v-6h-6v6h-6v6H6v30h6v-18h6v6h6v-6h6V150z M18,156v-6h6v6H18z"/>
<polygon points="42,66 42,60 36,60 36,84 24,84 24,90 36,90 36,96 24,96 24,102 18,102 18,108 30,108 30,102 36,102 36,108 48,108 
	48,102 42,102 42,96 48,96 48,90 42,90 42,84 48,84 48,78 42,78 42,72 54,72 54,66 "/>
<polygon points="174,66 168,66 168,72 174,72 174,78 180,78 180,72 186,72 186,66 180,66 180,60 174,60 "/>
<path d="M84,174h6v-6h0.1c-2.1-1.6-4.2-3.3-6.1-5.2v5.2h-6v12h6V174z"/>
<rect x="174" y="108" width="6" height="6"/>
<path d="M121.1,222c-0.6-1.9-0.9-3.9-1-6H120v-6h0.2c0.1-1.6,0.1-3.1,0.1-4.6c-0.1-4.5-0.2-8.9-0.2-13.4H120v12h-6v-6H96v6h6v6h-6
	v-6H78v6h6v6h-6v12h6v-6h6v-6h6v6h-6v6h12v-12h6v-6h6v12H121.1z"/>
<rect x="150" y="66" width="6" height="6"/>
<path d="M154.3,89.9C154.3,90,154.4,90,154.3,89.9L156,90v-6h-5.4C151.9,85.9,153.2,87.9,154.3,89.9z"/>
<rect x="90" y="174" width="6" height="6"/>
<rect x="162" y="60" width="6" height="6"/>
<path d="M96,171.7v2.3h5.1C99.4,173.4,97.7,172.6,96,171.7z"/>
<polygon points="162,78 156,78 156,84 168,84 168,72 162,72 "/>
</svg>
